<svg xmlns="http://www.w3.org/2000/svg" viewBox="0 0 16 13" width="16" height="13">
	<style>
		tspan { white-space:pre }
		.shp0 { fill: black } 
	</style>
	<g id="get in touch">
		<g id="form">
			<g id="button">
				<path id="arrow right copy" class="shp0" d="M1.65 7.4L11.79 7.4L8.35 10.7C8.09 10.95 8.09 11.34 8.35 11.59C8.6 11.83 9.01 11.83 9.26 11.59L13.81 7.21C14.07 6.97 14.07 6.57 13.81 6.33L9.26 1.95C9.14 1.83 8.97 1.77 8.8 1.77C8.64 1.77 8.47 1.83 8.35 1.95C8.09 2.2 8.09 2.59 8.35 2.84L11.79 6.15L1.65 6.15C1.3 6.15 1 6.43 1.01 6.77C1.01 7.12 1.3 7.4 1.65 7.4Z" />
			</g>
		</g>
	</g>
</svg>