<svg xmlns="http://www.w3.org/2000/svg" viewBox="0 0 16 13" width="16" height="13">
	<style>
		tspan { white-space:pre }
		.shp0 { fill: #000000 } 
	</style>
	<g id="get in touch">
		<g id="form">
			<g id="button">
				<path id="arrow right" class="shp0" d="M14.35 7.4L4.21 7.4L7.65 10.7C7.91 10.95 7.91 11.34 7.65 11.59C7.4 11.83 6.99 11.83 6.74 11.59L2.19 7.21C1.93 6.97 1.93 6.57 2.19 6.33L6.74 1.95C6.86 1.83 7.03 1.77 7.2 1.77C7.36 1.77 7.53 1.83 7.65 1.95C7.91 2.2 7.91 2.59 7.65 2.84L4.21 6.15L14.35 6.15C14.7 6.15 15 6.43 14.99 6.77C14.99 7.12 14.7 7.4 14.35 7.4Z" />
			</g>
		</g>
	</g>
</svg>