<svg xmlns="http://www.w3.org/2000/svg" viewBox="0 0 20 15" width="20" height="15">
	<style>
		tspan { white-space:pre }
		.shp0 { fill: #ffb370 } 
	</style>
	<g id="hero image">
		<g id="left bar">
			<g id="social" style="opacity: 0.2">
				<path id="behance" class="shp0" d="M12.53 3.22L17.19 3.22L17.19 4.66L12.53 4.66L12.53 3.22ZM17.16 10.4L15.04 10.4L12.93 10.4C13.13 11.63 14 12.56 15.04 12.56C15.87 12.56 16.58 11.98 16.94 11.12L18.8 11.12C18.27 12.79 16.71 14 14.86 14C12.58 14 10.72 12.15 10.72 9.86C10.72 7.58 12.58 5.73 14.86 5.73C17.15 5.73 19 7.58 19 9.86C19 10.05 18.98 10.23 18.96 10.4L17.16 10.4ZM15.04 7.17C14.1 7.17 13.31 7.92 13.01 8.96L17.07 8.96C16.77 7.92 15.98 7.17 15.04 7.17ZM7.12 13.91L1 14L1 2.85C1 2.85 9.71 1.65 9.64 5.37C9.64 5.37 9.91 7.26 8.56 7.89C8.56 7.89 10.36 8.17 10.36 10.76C10.36 10.76 10.49 13.31 7.12 13.91ZM6.04 4.65L3.52 4.65L3.52 7.17L6.04 7.17C7.51 7.16 7.48 6.09 7.48 6.09C7.46 4.58 6.04 4.65 6.04 4.65ZM6.4 8.96L3.52 8.96L3.52 11.84L6.4 11.84C7.86 11.83 7.84 10.4 7.84 10.4C7.81 9.04 6.4 8.96 6.4 8.96Z" />
			</g>
		</g>
	</g>
</svg>