<svg xmlns="http://www.w3.org/2000/svg" viewBox="0 0 70 219" width="70" height="219">
	<style>
		tspan { white-space:pre }
		.shp0 { fill: #ffb370 } 
	</style>
	<g id="hero image">
		<g id="left bar">
			<g id="social" style="opacity: 0.2">
				<path id="faceboook" class="shp0" d="M12.76 203.96L12.76 205.76L15.64 205.76L15.28 208.99L12.76 208.99L12.76 217.99L8.8 217.99L8.8 208.99L7 208.99L7 205.76L8.8 205.76L8.8 203.96C8.8 203.96 8.48 200.53 11.68 199.99L15.64 199.99L15.64 202.88L13.84 202.88C13.84 202.88 12.81 202.84 12.76 203.96Z" />
				<path id="twitter" class="shp0" d="M18.23 81.96L20.04 81.6C20.04 81.6 18.52 83.3 18.23 83.4C18.22 83.4 18.22 83.39 18.22 83.39C18.18 84.23 18.23 84.47 18.23 84.47C14.76 99.3 2.02 92.75 2.02 92.75C6.66 92.87 7.07 90.95 7.07 90.95C4.35 90.54 3.83 88.79 3.83 88.79C4.75 89.21 5.27 88.43 5.27 88.43C2.34 87.67 2.75 84.83 2.75 84.83C3.24 85.28 4.04 85.45 4.52 85.52C4.19 85.13 1.45 81.85 3.11 80.16C3.11 80.16 5.11 83.75 10.4 84.09L10.75 84C10.7 83.75 10.67 83.49 10.67 83.22C10.67 81.13 12.36 79.44 14.45 79.44C16.96 79.44 17.51 80.88 17.51 80.88L19.31 79.8C19.31 79.8 19.11 81.6 18.23 81.96Z" />
				<path id="instagram" fill-rule="evenodd" class="shp0" d="M64.78 19.99L53.26 19.99C51.47 19.99 50.02 18.54 50.02 16.75L50.02 5.24C50.02 3.45 51.47 2 53.26 2L64.78 2C66.57 2 68.02 3.45 68.02 5.24L68.02 16.75C68.02 18.54 66.57 19.99 64.78 19.99ZM54.34 18.19L63.7 18.19C65.09 18.19 66.22 17.06 66.22 15.67L66.22 9.19L51.82 9.19L51.82 15.67C51.82 17.06 52.95 18.19 54.34 18.19ZM62.97 4.16L65.84 4.16L65.84 7.03L62.97 7.03L62.97 4.16ZM59.02 5.97C61.8 5.97 64.06 8.22 64.06 11C64.06 13.78 61.8 16.03 59.02 16.03C56.23 16.03 53.97 13.78 53.97 11C53.97 8.22 56.23 5.97 59.02 5.97ZM59.03 8.12C60.62 8.12 61.91 9.41 61.91 11C61.91 12.59 60.62 13.87 59.03 13.87C57.44 13.87 56.16 12.59 56.16 11C56.16 9.41 57.44 8.12 59.03 8.12Z" />
				<path id="behance" class="shp0" d="M13.53 142.22L18.19 142.22L18.19 143.66L13.53 143.66L13.53 142.22ZM18.16 149.4L16.04 149.4L13.93 149.4C14.13 150.63 15 151.56 16.04 151.56C16.87 151.56 17.58 150.98 17.94 150.12L19.8 150.12C19.27 151.79 17.71 153 15.86 153C13.58 153 11.72 151.15 11.72 148.86C11.72 146.58 13.58 144.73 15.86 144.73C18.15 144.73 20 146.58 20 148.86C20 149.05 19.98 149.23 19.96 149.4L18.16 149.4ZM16.04 146.17C15.1 146.17 14.31 146.92 14.01 147.96L18.07 147.96C17.77 146.92 16.98 146.17 16.04 146.17ZM8.12 152.91L2 153L2 141.85C2 141.85 10.71 140.65 10.64 144.37C10.64 144.37 10.91 146.26 9.56 146.89C9.56 146.89 11.36 147.17 11.36 149.76C11.36 149.76 11.49 152.31 8.12 152.91ZM7.04 143.65L4.52 143.65L4.52 146.17L7.04 146.17C8.51 146.16 8.48 145.09 8.48 145.09C8.46 143.58 7.04 143.65 7.04 143.65ZM7.4 147.96L4.52 147.96L4.52 150.84L7.4 150.84C8.86 150.83 8.84 149.4 8.84 149.4C8.81 148.04 7.4 147.96 7.4 147.96Z" />
			</g>
		</g>
	</g>
</svg>