<svg xmlns="http://www.w3.org/2000/svg" viewBox="0 0 21 21" width="21" height="21">
	<style>
		tspan { white-space:pre }
		.shp0 { fill: #ffb370 } 
	</style>
	<g id="hero image">
		<g id="left bar">
			<g id="social" style="opacity: 0.2">
				<path id="instagram" fill-rule="evenodd" class="shp0" d="M15.78 19.99L4.26 19.99C2.47 19.99 1.02 18.54 1.02 16.75L1.02 5.24C1.02 3.45 2.47 2 4.26 2L15.78 2C17.57 2 19.02 3.45 19.02 5.24L19.02 16.75C19.02 18.54 17.57 19.99 15.78 19.99ZM5.34 18.19L14.7 18.19C16.09 18.19 17.22 17.06 17.22 15.67L17.22 9.19L2.82 9.19L2.82 15.67C2.82 17.06 3.95 18.19 5.34 18.19ZM13.97 4.16L16.84 4.16L16.84 7.03L13.97 7.03L13.97 4.16ZM10.02 5.97C12.8 5.97 15.06 8.22 15.06 11C15.06 13.78 12.8 16.03 10.02 16.03C7.23 16.03 4.97 13.78 4.97 11C4.97 8.22 7.23 5.97 10.02 5.97ZM10.03 8.12C11.62 8.12 12.91 9.41 12.91 11C12.91 12.59 11.62 13.87 10.03 13.87C8.44 13.87 7.16 12.59 7.16 11C7.16 9.41 8.44 8.12 10.03 8.12Z" />
			</g>
		</g>
	</g>
</svg>