<svg xmlns="http://www.w3.org/2000/svg" viewBox="0 0 22 23" width="22" height="23">
	<style>
		tspan { white-space:pre }
		.shp0 { fill: #ffb370 } 
	</style>
	<g id="hero image">
		<g id="left bar">
			<g id="social" style="opacity: 0.2">
				<path id="twitter" class="shp0" d="M18.23 3.96L20.04 3.6C20.04 3.6 18.52 5.3 18.23 5.4C18.22 5.4 18.22 5.39 18.22 5.39C18.18 6.23 18.23 6.47 18.23 6.47C14.76 21.3 2.02 14.75 2.02 14.75C6.66 14.87 7.07 12.95 7.07 12.95C4.35 12.54 3.83 10.79 3.83 10.79C4.75 11.21 5.27 10.43 5.27 10.43C2.34 9.67 2.75 6.83 2.75 6.83C3.24 7.28 4.04 7.45 4.52 7.52C4.19 7.13 1.45 3.85 3.11 2.16C3.11 2.16 5.11 5.75 10.4 6.09L10.75 6C10.7 5.75 10.67 5.49 10.67 5.22C10.67 3.13 12.36 1.44 14.45 1.44C16.96 1.44 17.51 2.88 17.51 2.88L19.31 1.8C19.31 1.8 19.11 3.6 18.23 3.96Z" />
			</g>
		</g>
	</g>
</svg>