<svg xmlns="http://www.w3.org/2000/svg" preserveAspectRatio="xMidYMid meet" data-bbox="0 0 415.459 106.98" viewBox="0 0 415.459 106.98" height="108" width="418" data-type="color" role="img">
    <g>
        <defs>
            <clipPath id="svgcid--j3dt4f-h68d3i">
                <path d="M418 0v108H0V0h418z"/>
            </clipPath>
        </defs>
        <g clip-path="url(#svgcid--j3dt4f-h68d3i)">
            <g>
                <path fill-rule="evenodd" fill="#ffffff" d="M134.823 45.188h-9.732v-4.623h24.9v4.623h-9.729v24.811h-5.44z" data-color="1"/>
                <path fill-rule="evenodd" fill="#ffffff" d="M162.071 47.357v4.984a7 7 0 0 0-1.211-.126 6.294 6.294 0 0 0-4.732 1.777 7.189 7.189 0 0 0-1.7 5.141v10.865h-5.188V47.604h4.937v3.255c1.495-2.339 4.136-3.502 7.894-3.502z" data-color="1"/>
                <path fill-rule="evenodd" fill="#ffffff" d="M176.929 65.485a4.8 4.8 0 0 0 2.154-2.563v-2.579h-5.409c-3.034 0-4.544.975-4.544 2.956a2.643 2.643 0 0 0 1.132 2.249 5.281 5.281 0 0 0 3.16.833 6.846 6.846 0 0 0 3.507-.896zm4.78-15.77q2.618 2.359 2.626 7.107v13.066h-4.969v-2.7a6.1 6.1 0 0 1-2.751 2.233 10.668 10.668 0 0 1-4.308.77 10.62 10.62 0 0 1-4.4-.849 6.924 6.924 0 0 1-2.924-2.39 6.038 6.038 0 0 1-1.022-3.444 5.875 5.875 0 0 1 2.248-4.827c1.494-1.195 3.852-1.809 7.075-1.809h5.8v-.33a4.543 4.543 0 0 0-1.415-3.6 6.128 6.128 0 0 0-4.182-1.258 11.536 11.536 0 0 0-3.711.6 8.857 8.857 0 0 0-3.082 1.635l-2.059-3.8a12.39 12.39 0 0 1 4.245-2.044 18.967 18.967 0 0 1 5.235-.708q4.976-.01 7.594 2.348z" data-color="1"/>
                <path fill-rule="evenodd" fill="#ffffff" d="M193.8 68.724a10.8 10.8 0 0 1-4.323-4.072 11.329 11.329 0 0 1-1.557-5.912 11.218 11.218 0 0 1 1.557-5.881 10.842 10.842 0 0 1 4.292-4.041 13.21 13.21 0 0 1 6.289-1.462 12.063 12.063 0 0 1 5.8 1.336 8.689 8.689 0 0 1 3.758 3.836l-4.025 2.343a6.3 6.3 0 0 0-2.421-2.311 6.587 6.587 0 0 0-3.161-.786 6.637 6.637 0 0 0-4.858 1.9 6.836 6.836 0 0 0-1.949 5.078 6.816 6.816 0 0 0 1.918 5.062 6.623 6.623 0 0 0 4.89 1.9 6.533 6.533 0 0 0 3.161-.771 6.413 6.413 0 0 0 2.421-2.311l4.025 2.343a9.087 9.087 0 0 1-3.8 3.852 11.814 11.814 0 0 1-5.772 1.359 13.2 13.2 0 0 1-6.245-1.462z" data-color="1"/>
                <path fill-rule="evenodd" fill="#ffffff" d="M222.132 60.392l-3.9 3.695v5.912h-5.22V38.868h5.22v18.8l10.833-10.078h6.273l-9.324 9.4 10.2 13h-6.352z" data-color="1"/>
                <path fill-rule="evenodd" fill="#ffffff" d="M242.949 53.017a6.273 6.273 0 0 0-2.123 3.946h12.672a6.2 6.2 0 0 0-2.044-3.931 6.3 6.3 0 0 0-4.277-1.494 6.125 6.125 0 0 0-4.228 1.479zm15.455 7.405h-17.531a6.066 6.066 0 0 0 2.406 3.9 7.935 7.935 0 0 0 4.843 1.447 8.162 8.162 0 0 0 6.053-2.421l2.8 3.207a9.388 9.388 0 0 1-3.789 2.72 13.918 13.918 0 0 1-5.188.912 13.716 13.716 0 0 1-6.478-1.462 10.544 10.544 0 0 1-4.339-4.072 11.4 11.4 0 0 1-1.525-5.9 11.653 11.653 0 0 1 1.478-5.865 10.574 10.574 0 0 1 4.119-4.072 12.063 12.063 0 0 1 5.944-1.462 11.758 11.758 0 0 1 5.833 1.446 10.219 10.219 0 0 1 4.009 4.041 12.331 12.331 0 0 1 1.447 6.038c-.004.349-.019.867-.082 1.543z" data-color="1"/>
                <path fill-rule="evenodd" fill="#ffffff" d="M275.275 47.357v4.984a7.011 7.011 0 0 0-1.211-.126 6.294 6.294 0 0 0-4.733 1.777 7.191 7.191 0 0 0-1.7 5.141v10.865h-5.188V47.604h4.937v3.255q2.243-3.51 7.895-3.502z" data-color="1"/>
                <path fill-rule="evenodd" fill="#ffffff" d="M291.265 65.392a12.522 12.522 0 0 0 5.676-1.242 8.834 8.834 0 0 0 3.773-3.537 10.316 10.316 0 0 0 1.321-5.33 10.357 10.357 0 0 0-1.321-5.33 8.835 8.835 0 0 0-3.773-3.537 12.522 12.522 0 0 0-5.676-1.242h-7.138v20.2h7.138zm-12.591-24.827h12.829a18.431 18.431 0 0 1 8.365 1.84 13.62 13.62 0 0 1 5.66 5.157 14.755 14.755 0 0 1 2.013 7.72 14.754 14.754 0 0 1-2.013 7.719 13.523 13.523 0 0 1-5.66 5.158 18.346 18.346 0 0 1-8.365 1.839h-12.829z" data-color="1"/>
                <path fill-rule="evenodd" fill="#ffffff" d="M317.475 53.017a6.276 6.276 0 0 0-2.123 3.946h12.673a6.193 6.193 0 0 0-2.044-3.931 6.3 6.3 0 0 0-4.277-1.494 6.1 6.1 0 0 0-4.229 1.479zm15.455 7.405H315.4a6.061 6.061 0 0 0 2.406 3.9 7.932 7.932 0 0 0 4.842 1.447 8.163 8.163 0 0 0 6.053-2.421l2.8 3.207a9.4 9.4 0 0 1-3.789 2.72 13.918 13.918 0 0 1-5.188.912 13.713 13.713 0 0 1-6.478-1.462 10.539 10.539 0 0 1-4.339-4.072 11.4 11.4 0 0 1-1.525-5.9 11.653 11.653 0 0 1 1.477-5.865 10.575 10.575 0 0 1 4.12-4.072 12.059 12.059 0 0 1 5.943-1.462 11.756 11.756 0 0 1 5.833 1.446 10.223 10.223 0 0 1 4.01 4.041 12.336 12.336 0 0 1 1.446 6.038c-.002.349-.033.867-.08 1.543z" data-color="1"/>
                <path fill-rule="evenodd" fill="#ffffff" d="M350.367 68.678a6.124 6.124 0 0 1-2.264 1.132 10.385 10.385 0 0 1-2.814.377 8.01 8.01 0 0 1-5.755-1.934 7.265 7.265 0 0 1-2.044-5.581V51.917h-3.726v-4.182h3.726v-5.094h5.283v5.094h6.069v4.182h-6.069v10.61a3.5 3.5 0 0 0 .818 2.485 2.99 2.99 0 0 0 2.327.864 4.753 4.753 0 0 0 2.972-.927z" data-color="1"/>
                <path fill-rule="evenodd" fill="#ffffff" d="M358.103 53.017a6.292 6.292 0 0 0-2.138 3.946h12.766a6.137 6.137 0 0 0-2.059-3.931 6.343 6.343 0 0 0-4.292-1.494 6.193 6.193 0 0 0-4.277 1.479zm15.565 7.405h-17.656a6.021 6.021 0 0 0 2.422 3.9 8 8 0 0 0 4.874 1.447 8.282 8.282 0 0 0 6.116-2.421l2.83 3.207a9.6 9.6 0 0 1-3.852 2.72 14.03 14.03 0 0 1-5.22.912 14.018 14.018 0 0 1-6.541-1.462 10.678 10.678 0 0 1-4.356-4.072 11.263 11.263 0 0 1-1.54-5.9 11.656 11.656 0 0 1 1.494-5.865 10.548 10.548 0 0 1 4.151-4.072 12.2 12.2 0 0 1 5.99-1.462 11.88 11.88 0 0 1 5.865 1.446 10.239 10.239 0 0 1 4.057 4.041 12.173 12.173 0 0 1 1.462 6.038c-.001.349-.032.867-.095 1.543z" data-color="1"/>
                <path fill-rule="evenodd" fill="#ffffff" d="M381.907 68.724a10.9 10.9 0 0 1-4.323-4.072 11.328 11.328 0 0 1-1.557-5.912 11.216 11.216 0 0 1 1.557-5.881 10.842 10.842 0 0 1 4.292-4.041 13.209 13.209 0 0 1 6.289-1.462 12.063 12.063 0 0 1 5.8 1.336 8.69 8.69 0 0 1 3.758 3.836l-4.025 2.343a6.306 6.306 0 0 0-2.421-2.311 6.588 6.588 0 0 0-3.16-.786 6.7 6.7 0 0 0-4.874 1.9 6.888 6.888 0 0 0-1.934 5.078 6.816 6.816 0 0 0 1.918 5.062 6.623 6.623 0 0 0 4.89 1.9 6.532 6.532 0 0 0 3.16-.771 6.419 6.419 0 0 0 2.421-2.311l4.025 2.343a9 9 0 0 1-3.8 3.852 11.817 11.817 0 0 1-5.771 1.352 13.2 13.2 0 0 1-6.245-1.455z" data-color="1"/>
                <path fill-rule="evenodd" fill="#ffffff" d="M415.459 68.678a6.1 6.1 0 0 1-2.232 1.132 10.152 10.152 0 0 1-2.783.377 7.915 7.915 0 0 1-5.707-1.934 7.371 7.371 0 0 1-2.013-5.581V51.917h-3.678v-4.182h3.678v-5.094h5.236v5.094h5.99v4.182h-5.99v10.61a3.5 3.5 0 0 0 .8 2.485 2.955 2.955 0 0 0 2.311.864 4.616 4.616 0 0 0 2.924-.927z" data-color="1"/>
            </g>
            <g>
                <path fill-rule="evenodd" fill="#ffffff" d="M53.489 30.188a23.311 23.311 0 0 1 23.29 23.285 23.311 23.311 0 0 1-23.29 23.285 23.312 23.312 0 0 1-23.29-23.285 23.312 23.312 0 0 1 23.29-23.285zm0 51.854a28.612 28.612 0 0 0 28.584-28.571 28.6 28.6 0 0 0-28.584-28.568 28.612 28.612 0 0 0-28.584 28.568 28.526 28.526 0 0 0 6.793 18.459L6.816 96.805a2.637 2.637 0 0 0 0 3.742 2.624 2.624 0 0 0 1.874.771 2.622 2.622 0 0 0 1.875-.771l24.916-24.92a28.367 28.367 0 0 0 18.008 6.415z" data-color="1"/>
                <path fill-rule="evenodd" fill="#ffffff" d="M53.589 69.244A15.727 15.727 0 0 0 69.243 53.49a15.789 15.789 0 0 0-5.282-11.808 2.314 2.314 0 0 0-3.268.2 2.342 2.342 0 0 0 .2 3.286 11.146 11.146 0 0 1 3.717 8.318 11.083 11.083 0 0 1-11.033 11.1 11.083 11.083 0 0 1-11.031-11.1A11.086 11.086 0 0 1 53.577 42.37a2.312 2.312 0 0 0 2.305-2.312 2.315 2.315 0 0 0-2.305-2.327A15.727 15.727 0 0 0 37.923 53.49a15.737 15.737 0 0 0 15.666 15.754z" data-color="2"/>
                <path fill-rule="evenodd" fill="#ffffff" d="M36.322 21.336a2.311 2.311 0 0 0 .943-3.145 2.313 2.313 0 0 0-3.138-.927 40.356 40.356 0 0 0-11.3 8.93 40.99 40.99 0 0 0-4.992 47.546 2.3 2.3 0 0 0 2.019 1.164 2.322 2.322 0 0 0 1.143-.3 2.326 2.326 0 0 0 .874-3.16 36.366 36.366 0 0 1 4.424-42.184 36.136 36.136 0 0 1 10.027-7.924z" data-color="2"/>
                <path fill-rule="evenodd" fill="#ffffff" d="M90.406 65.438a2.34 2.34 0 0 0-3 1.305 36.136 36.136 0 0 1-6.674 10.864 36.357 36.357 0 0 1-44.489 7.924 2.32 2.32 0 0 0-3.137.943 2.311 2.311 0 0 0 .943 3.129 41.175 41.175 0 0 0 19.462 4.922A41.035 41.035 0 0 0 84.2 80.689a41.064 41.064 0 0 0 7.529-12.264 2.3 2.3 0 0 0-1.323-2.987z" data-color="2"/>
                <path fill-rule="evenodd" fill="#ffffff" d="M94.196 58.74a41.073 41.073 0 0 0-13.482-35.943 40.738 40.738 0 0 0-24.26-10.235 42.542 42.542 0 0 0-7.223.11 41.483 41.483 0 0 0-7.778 1.573 2.327 2.327 0 0 0-1.544 2.893 2.334 2.334 0 0 0 2.888 1.541 35.8 35.8 0 0 1 6.9-1.4 36.363 36.363 0 0 1 6.41-.094 36.009 36.009 0 0 1 21.516 9.072A36.374 36.374 0 0 1 89.57 58.143a2.329 2.329 0 0 0 2.012 2.594c.094 0 .188.015.283.015a2.339 2.339 0 0 0 2.331-2.012z" data-color="2"/>
                <path fill-rule="evenodd" fill="#ffffff" d="M89.887 14.198a2.346 2.346 0 0 0-3.286.126 2.325 2.325 0 0 0 .126 3.27 49.059 49.059 0 0 1 15.613 35.848 48.9 48.9 0 0 1-48.821 48.881 48.694 48.694 0 0 1-25.828-7.374 2.308 2.308 0 0 0-3.193.739 2.324 2.324 0 0 0 .742 3.192 53.273 53.273 0 0 0 28.279 8.1 53.548 53.548 0 0 0 53.459-53.52 53.708 53.708 0 0 0-17.091-39.262z" data-color="2"/>
                <path fill-rule="evenodd" fill="#ffffff" d="M3.277 43.709a2.147 2.147 0 0 0 .542.063 2.328 2.328 0 0 0 2.25-1.777A48.624 48.624 0 0 1 53.532 4.638a48.732 48.732 0 0 1 25.757 7.343 2.325 2.325 0 0 0 3.192-.755 2.328 2.328 0 0 0-.743-3.192A53.372 53.372 0 0 0 53.538 0 53.246 53.246 0 0 0 1.577 40.911a2.3 2.3 0 0 0 1.7 2.798z" data-color="2"/>
                <path fill-rule="evenodd" fill="#ffffff" d="M10.325 83.206a2.238 2.238 0 0 0 1.242-.362 2.3 2.3 0 0 0 .709-3.192 48.609 48.609 0 0 1-7.628-26.194 2.325 2.325 0 0 0-2.331-2.327A2.322 2.322 0 0 0 0 53.458a53.158 53.158 0 0 0 8.362 28.678 2.334 2.334 0 0 0 1.963 1.07z" data-color="2"/>
            </g>
        </g>
    </g>
</svg>