<svg xmlns="http://www.w3.org/2000/svg" width="92" height="50" viewBox="0 0 92 50">
    <path fill="#ffff" stroke="#ffff" stroke-width=".6" d="M68.27 18.774c1.285.049 1.977.889 1.977 3.014-.181 3.476-2.01 7.725-5.09 7.94h-.494c-.132 0-.23 0-.33-.017-.131.857-.23 1.565-.313 2.174-.642 4.876-1.054 9.521-1.4 14.38l-.165 2.29c-.049.181-.18.363-.362.445h-.115c-.247-.016-.429-.296-.429-.593.231-8.253.758-16.571 1.088-24.824v-.115c0-.05.016-.082.016-.132v-.066c.033-.675.099-1.976.593-2.042.28.099.379.741.379 1.301 0 .428-.066.824-.066 1.054v.066c0 .017.017.033.017.05l-.38 7.709c.017 0 .05.016.067.016.444-2.75.89-5.37 1.63-7.89.577-1.812 1.664-4.48 3.377-4.76zM47.913 3.026c.748 0 1.038.776 1.15 1.563l.009.075-.049.055c-.223.263-.429.54-.614.832l-.102.167-.004.338c-.037 1.287-.255 2.86-.584 4.554l-.032.155.084.27c.106.32.23.638.372.953l.135.289-.007.039c-1.19 5.522-3.345 11.794-4.74 14.743v-.021l-.043 1.065c-.037 1.08-.056 2.164-.056 3.239 0 1.186 0 2.388.083 3.574.099 1.68.33 3.805 1.054 5.354l.016.05.132.213.017.033.197.363-.115.082c-1.252-1.35-1.614-4.003-1.828-5.98l-.066-1.317c-.05-1.038-.116-2.273-.116-3.443 0-.692 0-1.021.033-1.746-.79 1.417-1.943 3.262-3.278 3.262-1.35 0-1.663-1.648-1.663-2.916 0-1.301.263-2.52.626-3.805.593-1.894 1.779-4.58 3.673-4.58.247.034.478.116.725.28l.313.33c.28-3.574 1.73-18.07 4.678-18.07zm.717 7.468l.037.136c.254.882.683 1.706 1.237 2.625v-.016c2.405 3.673 6.045 6.655 8.088 10.624.84-.148 1.762-.477 2.487-.477.066 0 .33.082.33.197 0 .033-2.01.462-2.653.56.626 1.302.923 2.587.923 4.02 0 2.57-.511 5.057-1.977 7.429-1.878 2.652-4.876 4.447-7.84 4.447-1.467-.033-3.18-.576-4.201-2.19-.379-.758-.445-1.384-.445-2.39.692-6.605 7.676-10.261 12.42-11.398-1.186-2.158-2.833-4.069-4.447-5.913-1.573-1.786-3.283-3.756-4.299-5.846l-.012-.025.095-.447c.067-.322.13-.64.189-.956l.068-.38zm8.57 13.847c-4.562 1.236-11.563 5.238-11.744 11.794.181 1.796 1.614 3.146 3.838 3.295.824-.017 1.63-.149 2.389-.429 4.068-1.466 6.44-5.304 6.44-10.657 0-1.549-.313-2.767-.922-3.97h.016l-.016-.033zM24.919 1.296c.115.445.131.906.131 1.351v.56c0 1.005-.115 2.026-.197 3.031 0 .115-.05.247-.05.363-.873 8.384-5.106 30.193-8.993 30.341-1.4 0-2.01-2.125-2.274-3.624-.468-3.065-.52-6.158-.526-9.139v-2.012c0-.396.016-.807.016-1.22l.016-2.832c0-1.005-.033-1.911-.082-2.932v-.033c-.379.922-.643 1.696-.857 2.405l-1.466 4.875C9.5 26.235 8.264 30.551 6.518 34.966c-.642 1.614-1.746 4.332-3.13 4.332-1.482 0-1.877-3.262-2.059-4.892C1.05 31.984 1 29.415 1 26.713c0-4.25.247-9.158.79-13.573.198-1.334.973-6.358 2.076-6.737 0 .132-.165 1.235-.346 2.421l-.692 4.431c-.494 4.217-.807 9.225-.807 13.475 0 2.52.017 5.073.297 7.593.082.692.445 3.575 1.087 4.069.824-.61 1.828-2.866 2.174-3.723.94-2.388 1.78-4.892 2.553-7.412l1.154-3.772c.625-2.158 1.3-4.333 1.993-6.458.411-1.284 1.037-3.393 1.861-3.393.741 0 .89 1.483.89 2.998 0 .988-.05 1.993-.05 2.603l-.05 6.54.05 1.152c.05 2.092.082 4.2.428 6.243.132.741.577 2.982 1.351 2.982 2.422 0 5.584-13.853 6.342-17.33 1.07-4.924 2.339-11.266 2.635-16.356 0-.082.017-.214.017-.296v-.264l-.017-.28h0v-.313l.182-.017zm29.654 25.555c.004.018-.005.036-.022.042l-.003.002c-.297.116-.591.234-.877.37-.288.128-.571.265-.848.413-.553.295-1.078.634-1.57 1.01-.248.186-.486.375-.723.58-.24.206-.475.41-.697.622-.45.42-.866.863-1.22 1.343-.352.48-.643.992-.852 1.529-.21.537-.319 1.095-.375 1.695-.054.577-.043 1.149.116 1.627.078.24.19.45.334.626.04.041.079.083.117.125.041.041.092.078.137.118.043.043.095.074.145.107.05.033.098.07.153.094.412.243.932.32 1.473.276.27-.024.545-.077.818-.152.273-.078.542-.181.808-.294.529-.236 1.04-.54 1.509-.902.467-.364.907-.775 1.308-1.227.796-.91 1.45-1.965 1.955-3.099.261-.566.491-1.143.627-1.744.067-.3.109-.606.11-.913.009-.307-.026-.62-.124-.919v-.003c-.007-.019.003-.039.022-.045.018-.006.037.003.044.02.261.595.273 1.265.182 1.894-.093.634-.286 1.247-.509 1.843-.448 1.193-1.065 2.33-1.872 3.322-.803.991-1.808 1.833-2.969 2.383-.58.272-1.202.466-1.845.53-.638.06-1.314-.02-1.886-.345-.282-.164-.542-.367-.75-.622-.206-.256-.355-.552-.451-.862-.194-.622-.196-1.281-.122-1.915.075-.634.216-1.268.466-1.86.246-.593.589-1.142.99-1.64 1.661-1.937 3.885-3.403 6.357-4.054.019-.005.038.006.044.025zm-26.508-5.97c1.499.1 1.96 1.796 2.01 3.724.708-.363 1.515-.742 2.223-1.104h-.033c.1-.082.181-.132.28-.132h.132c.082.132.082.181.082.23-.033.363-.197 1.088-.362 1.434l-.115.247c-.297.922-.462 2.01-.462 3.014 0 .544.132 2.9 1.22 2.965 1.614-.23 2.651-3.13 2.964-4.842.116-.626.165-1.351.165-2.026 0-.56-.181-2.422-1.07-2.636-1.4.05-1.812 1.96-1.812 3.377v.28l.098.725c.066.543.132 1.251.247 1.334l-.098.132c-.346-.1-.676-1.977-.709-2.175-.033-.313-.05-.593-.05-.89 0-1.877.759-3.59 2.274-3.59 1.466.082 1.861 2.207 1.861 3.706 0 1.73-.856 7.297-3.739 7.61-1.696-.05-2.207-2.652-2.207-4.184 0-1.136.181-2.503.56-3.459-.016 0-.033.033-.05.033-.576.412-1.087.527-1.416.692-.165 2.619-1.384 6.655-3.74 6.918-1.663-.033-2.19-2.536-2.19-4.068 0-.989.165-2.142.395-3.097.182-.428.725-1.73 1.22-1.73l.147.066c.165-1.367 1.088-2.553 2.175-2.553zm47.01 0c1.498.1 1.96 1.796 2.009 3.724.708-.363 1.515-.742 2.224-1.104h-.033c.098-.082.18-.132.28-.132h.131c.083.132.083.181.083.23-.033.363-.198 1.088-.363 1.434l-.115.247c-.296.922-.461 2.01-.461 3.014 0 .544.132 2.9 1.219 2.965 1.614-.23 2.652-3.13 2.965-4.842.115-.626.165-1.351.165-2.026 0-.56-.182-2.422-1.071-2.636-1.4.05-1.812 1.96-1.812 3.377v.28l.099.725c.066.543.131 1.251.247 1.334l-.099.132c-.346-.1-.675-1.977-.708-2.175-.033-.313-.05-.593-.05-.89 0-1.877.758-3.59 2.273-3.59 1.466.082 1.862 2.207 1.862 3.706 0 1.73-.857 7.297-3.74 7.61-1.696-.05-2.207-2.652-2.207-4.184 0-1.136.181-2.503.56-3.459-.016 0-.033.033-.05.033-.576.412-1.086.527-1.416.692-.164 2.619-1.383 6.655-3.739 6.918-1.664-.033-2.19-2.536-2.19-4.068 0-.989.164-2.142.395-3.097.18-.428.724-1.73 1.219-1.73l.148.066c.165-1.367 1.087-2.553 2.174-2.553zm11.283-1.103c.33 0 .411.577.411 1.005 0 .181 0 .363-.016.461l-.247 3.427c-.066.873-.115 1.68-.165 2.536.017 0 .066.017.083.017l.658-2.24c.462-1.335 1.45-4.102 2.652-4.102h.132c.906.115 1.137 1.235 1.137 2.306 0 .955-.083 1.927-.198 2.866 0 .083-.033.198-.033.28l-.016.247c0 .066-.033.165-.033.23-.1.973-.214 1.994-.247 2.966 0 .61.033 1.17.296 1.697 0 .214.214 0 .214.395-.922 0-1.037-1.91-1.037-2.669 0-1.07.197-2.322.197-3.31.1-.84.116-1.714.116-2.603 0-.527-.05-1.367-.511-1.433-.725.033-1.598 2.668-1.861 3.508-.198.61-.396 1.335-.61 2.01l-.115.412c-.33 1.07-.643 2.19-.94 2.998v-.017c-.082.198-.246.33-.427.33-.28 0-.445-.247-.445-.577.016-2.85.214-5.666.412-8.516v-.148c.016-.527.082-2.076.593-2.076zm-13.409 4.365c-.214.412-.51 1.137-.51 1.186l-.066.248c-.23.856-.38 1.63-.396 2.536 0 .165.017 3.08 1.236 3.146 1.828-.197 2.784-3.656 3.03-5.633-.378.099-.773.165-1.103.165-.972 0-1.91-.429-2.19-1.648zm-47.01 0c-.213.412-.51 1.137-.51 1.186l-.066.248c-.23.856-.378 1.63-.395 2.536v.085c.01.512.11 3 1.235 3.061 1.829-.197 2.784-3.656 3.031-5.633-.379.099-.774.165-1.103.165-.972 0-1.911-.429-2.191-1.648zm16.424-2.866c-.033 0-.116.033-.198.033h-.016c-1.928.461-3.344 5.14-3.344 7.71 0 .609.131 1.646.823 1.646 1.236 0 2.685-3.096 3.18-4.266l.115-.132c.05-1.515.164-3.245.28-4.744l-.51-.197h.016c-.132-.033-.231-.05-.346-.05zm26.188-1.663c-.05 0-.099 0-.148.016-2.125 1.104-3.393 6.012-3.97 9.587h.643c2.816-.577 4.464-4.102 4.513-7.462 0-.708-.017-1.697-.61-2.043h.017c-.165-.065-.297-.098-.445-.098zM28.097 21.77c-.807.05-1.532.923-1.532 1.96 0 1.154 1.136 1.335 1.713 1.335.313 0 .659-.05.955-.115l.083-.066c-.017-.94-.165-2.932-1.22-3.114zm47.01 0c-.808.05-1.533.923-1.533 1.96 0 1.154 1.137 1.335 1.713 1.335.313 0 .66-.05.956-.115l.082-.066c-.016-.94-.165-2.932-1.219-3.114zM47.846 4.064h-.066l-.115.066v-.017c-2.389 2.306-3.674 15.978-3.954 19.965l.083.033c1.152-2.954 2.872-8.355 3.821-12.99l.071-.356-.015-.05c-.185-.644-.289-1.297-.289-1.957 0-.033.017-.065.017-.098v-.066c.079-1.058.395-1.996.874-2.82l.033-.056.001-.04h0v-.352c-.005-.58-.054-1.262-.461-1.262zm1.282 1.909l.003-.18c0 1.317-.181 2.9-.485 4.611l-.017.09-.042-.161c-.095-.399-.155-.812-.176-1.254l-.007-.337c0-.97.233-1.835.631-2.598l.093-.171zM57.267 1c1.795 0 4.365.708 4.447 3.59l-.02.182c-.063.504-.246 1.653-.688 2.01l-.082-.923c-.017-.247-.017-.527-.017-.74l-.033-.495c-.395-2.356-2.042-2.883-3.64-2.883-2.499 0-6.452 1.355-8.085 4.198l-.02.034.003-.18c0-.279-.005-.663-.05-1.056l-.01-.073.122-.139C51.394 2.101 55.082 1 57.267 1z"/>
</svg>
